<?xml version="1.0" encoding="UTF-8"?>
<svg id="Layer_1" data-name="Layer 1" xmlns="http://www.w3.org/2000/svg" xmlns:xlink="http://www.w3.org/1999/xlink" viewBox="0 0 479.36 485.18">
  <defs>
    <style>
      .cls-1 {
        stroke-width: 0px;
      }
    </style>
    <symbol id="Logo" viewBox="0 0 479.36 485.18">
      <g>
        <path class="cls-1" d="m0,485.12c.43-4.41.86-8.81,1.3-13.22.36-3.59.72-7.19,1.13-10.77.46-3.99,1.01-7.97,1.44-11.96.41-3.76.64-7.54,1.06-11.29.6-5.38,1.31-10.74,1.93-16.12.4-3.43.69-6.86,1.07-10.29.47-4.15,1.01-8.3,1.46-12.46.38-3.51.64-7.03,1.03-10.54.62-5.62,1.34-11.24,1.96-16.86.4-3.59.64-7.2,1.05-10.79.61-5.37,1.34-10.74,1.93-16.11.42-3.76.65-7.53,1.07-11.29.59-5.38,1.3-10.74,1.91-16.12.4-3.51.69-7.03,1.09-10.54.46-4.07,1.01-8.13,1.46-12.21.39-3.59.64-7.2,1.04-10.79.61-5.54,1.32-11.07,1.95-16.61.39-3.43.67-6.87,1.05-10.29.62-5.54,1.32-11.07,1.93-16.61.41-3.76.66-7.54,1.08-11.3.59-5.38,1.29-10.75,1.9-16.13.4-3.51.71-7.02,1.1-10.53.63-5.7,1.32-11.4,1.95-17.11.54-4.98,1-9.97,1.55-14.95.62-5.54,1.33-11.06,1.95-16.6.39-3.51.66-7.04,1.05-10.55.62-5.62,1.33-11.23,1.94-16.85.4-3.68.82-7.36,1-11.05.09-1.84.66-3.03,2.3-3.95,8.11-4.54,16.14-9.22,24.25-13.76,8.06-4.52,16.2-8.88,24.24-13.41,9.13-5.15,18.18-10.43,27.27-15.64,7.39-4.23,14.8-8.43,22.2-12.65,9.32-5.31,18.62-10.65,27.95-15.94,9.05-5.13,18.13-10.18,27.18-15.32,10.61-6.03,21.18-12.11,31.78-18.16,3.63-2.07,7.23-4.19,10.93-6.12.7-.36,1.96-.28,2.67.12,7.84,4.37,15.63,8.84,23.43,13.28,10.3,5.86,20.6,11.71,30.89,17.58,11.51,6.57,22.99,13.17,34.51,19.73,10.14,5.77,20.32,11.48,30.46,17.25,12.68,7.22,25.33,14.51,38.02,21.73,9.28,5.28,18.59,10.5,27.89,15.75,3.65,2.06,7.37,4.03,10.91,6.27.84.53,1.44,1.92,1.57,2.99.64,5.31,1.04,10.66,1.62,15.98.57,5.23,1.29,10.44,1.88,15.66.42,3.76.71,7.54,1.12,11.3.58,5.23,1.25,10.45,1.84,15.67.42,3.69.74,7.38,1.15,11.07.63,5.72,1.32,11.43,1.95,17.14.55,5.07,1.03,10.15,1.59,15.22.59,5.39,1.27,10.77,1.87,16.16.56,4.99,1.04,9.99,1.59,14.98.63,5.71,1.31,11.42,1.94,17.14.55,5,1.01,10,1.57,15,.61,5.48,1.3,10.94,1.91,16.42.4,3.6.69,7.22,1.09,10.82.6,5.39,1.29,10.77,1.89,16.17.42,3.77.71,7.56,1.12,11.33.58,5.31,1.23,10.62,1.81,15.93.42,3.84.76,7.7,1.18,11.54.57,5.15,1.21,10.3,1.79,15.45.43,3.85.77,7.7,1.2,11.55.62,5.55,1.3,11.1,1.93,16.66.54,4.83,1.03,9.66,1.57,14.49.63,5.72,1.32,11.44,1.93,17.17.55,5.16,1,10.33,1.58,15.49.75,6.78,1.62,13.54,2.36,20.32.42,3.84.7,7.7,1.05,11.56-1.08.01-2.17.03-3.25.03H3.26c-1.1-.03-2.18-.05-3.26-.06Zm431.94-42.58c-.37-3.82-.66-7.41-1.06-10.98-.61-5.37-1.32-10.72-1.94-16.09-.41-3.5-.71-7.02-1.12-10.52-.6-5.21-1.29-10.4-1.88-15.61-.41-3.59-.66-7.19-1.07-10.78-.6-5.29-1.29-10.57-1.92-15.85-.4-3.42-.73-6.85-1.13-10.27-.61-5.29-1.29-10.57-1.88-15.86-.4-3.51-.67-7.03-1.07-10.53-.61-5.37-1.32-10.73-1.93-16.1-.39-3.42-.64-6.86-1.05-10.29-.61-5.12-1.36-10.22-1.95-15.35-.58-5.05-.99-10.13-1.55-15.18-.6-5.45-1.31-10.89-1.94-16.34-.39-3.42-.69-6.86-1.09-10.28-.62-5.29-1.32-10.56-1.92-15.85-.4-3.51-.65-7.03-1.06-10.53-.61-5.2-1.34-10.39-1.94-15.6-.41-3.59-.62-7.2-1.05-10.79-.6-5.04-1.37-10.06-1.95-15.1-.59-5.13-.99-10.29-1.55-15.43-.6-5.54-1.22-11.08-2-16.59-.25-1.73-.56-4.1-1.73-4.92-3.66-2.58-7.74-4.56-11.67-6.77-6.78-3.82-13.57-7.61-20.35-11.45-10.83-6.13-21.64-12.28-32.46-18.42-7.76-4.4-15.52-8.79-23.27-13.2-8.33-4.74-16.63-9.51-24.96-14.24-7.12-4.05-14.26-8.06-21.39-12.09-6.91-3.9-13.83-7.78-20.72-11.73-1.5-.86-2.67-.61-4.11.23-9.07,5.26-18.18,10.44-27.3,15.6-8.12,4.6-16.29,9.12-24.42,13.72-9.55,5.41-19.05,10.89-28.6,16.29-8.06,4.56-16.18,9.03-24.24,13.58-8.43,4.76-16.83,9.59-25.25,14.37-7.79,4.42-15.63,8.75-23.36,13.27-1.13.66-2.27,2.07-2.51,3.31-.64,3.3-.79,6.69-1.13,10.04-.52,4.99-1.01,9.99-1.57,14.98-.61,5.47-1.3,10.94-1.93,16.41-.56,4.9-1.05,9.81-1.62,14.71-.6,5.14-1.29,10.26-1.87,15.4-.57,4.99-1.01,9.99-1.57,14.98-.61,5.47-1.32,10.92-1.93,16.39-.42,3.68-.71,7.38-1.13,11.06-.59,5.06-1.27,10.11-1.87,15.17-.42,3.51-.73,7.04-1.14,10.55-.6,5.14-1.28,10.26-1.86,15.4-.56,4.99-1.01,9.99-1.57,14.98-.61,5.47-1.3,10.92-1.94,16.39-.45,3.84-.88,7.68-1.32,11.52-.73,6.29-1.47,12.57-2.18,18.86-.55,4.91-1.01,9.82-1.57,14.72-.62,5.47-1.31,10.92-1.93,16.39-.56,4.9-1.06,9.81-1.63,14.71-.6,5.22-1.25,10.44-1.88,15.66-.62,5.14-1.28,10.27-1.86,15.41-.31,2.83-.48,5.67-.72,8.64h384.61Z"/>
        <g>
          <path class="cls-1" d="m306.56,179.86c-8.1-30.16-21.03-60.69-64.26-60.69-34.35,0-47.73,24.87-47.73,49.09,0,30.54,19.73,46.46,58.47,66.3,54.32,27.74,79.66,49.37,79.66,93.35,0,49.32-42.6,86.57-103.32,86.57-28.03,0-52.46-7.81-71.89-15-3.53-12.45-9.48-46.67-12.72-70.9l14.98-3.76c9.23,30.45,30.55,72.25,78.06,72.25,32.33,0,52.06-21.98,52.06-51.76,0-33.81-18.51-48.3-58.81-70.1-48.4-26.11-76.38-48.33-76.38-91.97s34.83-80.73,97.27-80.73c26.94,0,52.08,6.89,61.86,8.65,1.85,16.62,3.94,35.99,7.64,65.69l-14.89,3.01Z"/>
          <path class="cls-1" d="m306.56,179.86c-8.1-30.16-21.03-60.69-64.26-60.69-34.35,0-47.73,24.87-47.73,49.09,0,30.54,19.73,46.46,58.47,66.3,54.32,27.74,79.66,49.37,79.66,93.35,0,49.32-42.6,86.57-103.32,86.57-28.03,0-52.46-7.81-71.89-15-3.53-12.45-9.48-46.67-12.72-70.9l14.98-3.76c9.23,30.45,30.55,72.25,78.06,72.25,32.33,0,52.06-21.98,52.06-51.76,0-33.81-18.51-48.3-58.81-70.1-48.4-26.11-76.38-48.33-76.38-91.97s34.83-80.73,97.27-80.73c26.94,0,52.08,6.89,61.86,8.65,1.85,16.62,3.94,35.99,7.64,65.69l-14.89,3.01Z"/>
        </g>
      </g>
    </symbol>
  </defs>
  <use width="479.36" height="485.18" xlink:href="#Logo"/>
</svg>