<svg width="30" height="29" viewBox="0 0 30 29" fill="none" xmlns="http://www.w3.org/2000/svg">
<path d="M29.8035 14.8306C29.8048 13.8426 29.7177 12.8562 29.5434 11.8824H15.2997V17.4667H23.4578C23.2909 18.3586 22.9375 19.2088 22.4191 19.966C21.9007 20.7233 21.2279 21.3719 20.4413 21.8728V25.4977H25.3101C28.161 22.9744 29.8035 19.2428 29.8035 14.8306Z" fill="#4285F4"/>
<path d="M15.2997 29C19.3757 29 22.8076 27.7152 25.3102 25.5001L20.4413 21.8752C19.0862 22.7573 17.3408 23.2607 15.2997 23.2607C11.3602 23.2607 8.01636 20.7113 6.82064 17.2758H1.80493V21.0113C3.06204 23.4127 4.98968 25.4315 7.37265 26.8421C9.75561 28.2528 12.5001 28.9999 15.2997 29Z" fill="#34A853"/>
<path d="M6.82053 17.2753C6.1884 15.475 6.1884 13.5255 6.82053 11.7253V7.98969H1.80482C0.747292 10.0098 0.196533 12.2394 0.196533 14.5003C0.196533 16.7611 0.747292 18.9907 1.80482 21.0108L6.82053 17.2753Z" fill="#FBBC04"/>
<path d="M15.2997 5.74025C17.4537 5.70647 19.535 6.48772 21.0937 7.91514L25.4046 3.7768C22.671 1.31208 19.0497 -0.0410947 15.2997 0.000951288C12.5001 0.00107378 9.75561 0.748177 7.37265 2.15885C4.98968 3.56953 3.06204 5.58825 1.80493 7.98965L6.82064 11.7252C8.01636 8.2897 11.3602 5.74025 15.2997 5.74025Z" fill="#EA4335"/>
</svg>
